<svg width="97" height="69" viewBox="0 0 97 69" fill="none" xmlns="http://www.w3.org/2000/svg">
<path fill-rule="evenodd" clip-rule="evenodd" d="M8.16282 16.9807C9.26739 15.0676 8.61189 12.6212 6.69872 11.5166C4.78555 10.4121 2.33919 11.0676 1.23462 12.9807C0.13005 14.8939 0.78555 17.3403 2.69872 18.4448C4.61189 19.5494 7.05825 18.8939 8.16282 16.9807ZM18.1628 -0.339787C19.2674 -2.25296 18.6119 -4.69932 16.6987 -5.80389C14.7855 -6.90846 12.3392 -6.25296 11.2346 -4.33979C10.13 -2.42662 10.7855 0.0197457 12.6987 1.12432C14.6119 2.22888 17.0583 1.57338 18.1628 -0.339787ZM26.6987 -23.1244C28.6119 -22.0198 29.2674 -19.5735 28.1628 -17.6603C27.0583 -15.7471 24.6119 -15.0916 22.6987 -16.1962C20.7855 -17.3008 20.13 -19.7471 21.2346 -21.6603C22.3392 -23.5735 24.7855 -24.229 26.6987 -23.1244ZM38.1628 -34.9808C39.2674 -36.894 38.6119 -39.3403 36.6987 -40.4449C34.7855 -41.5495 32.3392 -40.894 31.2346 -38.9808C30.13 -37.0676 30.7855 -34.6213 32.6987 -33.5167C34.6119 -32.4121 37.0583 -33.0676 38.1628 -34.9808ZM24.0192 21.5166C25.9324 22.6212 26.5879 25.0676 25.4833 26.9807C24.3788 28.8939 21.9324 29.5494 20.0192 28.4448C18.1061 27.3403 17.4506 24.8939 18.5551 22.9807C19.6597 21.0676 22.1061 20.4121 24.0192 21.5166ZM35.4833 9.66021C36.5879 7.74704 35.9324 5.30068 34.0192 4.19611C32.1061 3.09154 29.6597 3.74704 28.5551 5.66021C27.4506 7.57338 28.1061 10.0197 30.0192 11.1243C31.9324 12.2289 34.3788 11.5734 35.4833 9.66021ZM44.0192 -13.1244C45.9324 -12.0198 46.5879 -9.57347 45.4833 -7.6603C44.3788 -5.74712 41.9324 -5.09163 40.0192 -6.19619C38.1061 -7.30076 37.4506 -9.74712 38.5551 -11.6603C39.6597 -13.5735 42.1061 -14.229 44.0192 -13.1244ZM55.4833 -24.9808C56.5879 -26.894 55.9324 -29.3403 54.0192 -30.4449C52.1061 -31.5495 49.6597 -30.894 48.5551 -28.9808C47.4506 -27.0676 48.1061 -24.6213 50.0192 -23.5167C51.9324 -22.4121 54.3788 -23.0676 55.4833 -24.9808ZM41.3397 31.5166C43.2529 32.6212 43.9084 35.0676 42.8038 36.9807C41.6993 38.8939 39.2529 39.5494 37.3397 38.4448C35.4266 37.3403 34.7711 34.8939 35.8756 32.9807C36.9802 31.0676 39.4266 30.412 41.3397 31.5166ZM52.8038 19.6602C53.9084 17.747 53.2529 15.3007 51.3397 14.1961C49.4266 13.0915 46.9802 13.747 45.8756 15.6602C44.7711 17.5734 45.4266 20.0197 47.3397 21.1243C49.2529 22.2289 51.6993 21.5734 52.8038 19.6602ZM61.3397 -3.1244C63.2529 -2.01983 63.9084 0.426531 62.8038 2.3397C61.6993 4.25288 59.2529 4.90838 57.3397 3.8038C55.4266 2.69923 54.7711 0.252875 55.8756 -1.6603C56.9802 -3.57347 59.4266 -4.22897 61.3397 -3.1244ZM72.8038 -14.9808C73.9084 -16.894 73.2529 -19.3403 71.3397 -20.4449C69.4266 -21.5495 66.9802 -20.894 65.8756 -18.9808C64.7711 -17.0676 65.4266 -14.6213 67.3397 -13.5167C69.2529 -12.4121 71.6993 -13.0676 72.8038 -14.9808ZM58.6602 41.5166C60.5734 42.6212 61.2289 45.0675 60.1243 46.9807C59.0198 48.8939 56.5734 49.5494 54.6602 48.4448C52.7471 47.3403 52.0916 44.8939 53.1961 42.9807C54.3007 41.0676 56.7471 40.412 58.6602 41.5166ZM70.1243 29.6602C71.2289 27.747 70.5734 25.3007 68.6602 24.1961C66.7471 23.0915 64.3007 23.747 63.1961 25.6602C62.0916 27.5734 62.7471 30.0197 64.6602 31.1243C66.5734 32.2289 69.0198 31.5734 70.1243 29.6602ZM78.6602 6.8756C80.5734 7.98017 81.2289 10.4265 80.1243 12.3397C79.0198 14.2529 76.5734 14.9084 74.6602 13.8038C72.7471 12.6992 72.0916 10.2529 73.1961 8.3397C74.3007 6.42653 76.7471 5.77103 78.6602 6.8756ZM90.1243 -4.98081C91.2289 -6.89398 90.5734 -9.34034 88.6602 -10.4449C86.7471 -11.5495 84.3007 -10.894 83.1961 -8.98081C82.0916 -7.06763 82.7471 -4.62127 84.6602 -3.5167C86.5734 -2.41214 89.0198 -3.06763 90.1243 -4.98081ZM75.9808 51.5166C77.8939 52.6212 78.5494 55.0675 77.4449 56.9807C76.3403 58.8939 73.8939 59.5494 71.9808 58.4448C70.0676 57.3403 69.4121 54.8939 70.5167 52.9807C71.6212 51.0675 74.0676 50.412 75.9808 51.5166ZM87.4449 39.6602C88.5494 37.747 87.8939 35.3007 85.9808 34.1961C84.0676 33.0915 81.6212 33.747 80.5167 35.6602C79.4121 37.5734 80.0676 40.0197 81.9808 41.1243C83.8939 42.2289 86.3403 41.5734 87.4449 39.6602ZM95.9808 16.8756C97.8939 17.9802 98.5494 20.4265 97.4449 22.3397C96.3403 24.2529 93.8939 24.9084 91.9808 23.8038C90.0676 22.6992 89.4121 20.2529 90.5167 18.3397C91.6212 16.4265 94.0676 15.771 95.9808 16.8756ZM107.445 5.01919C108.549 3.10602 107.894 0.65966 105.981 -0.444909C104.068 -1.54948 101.621 -0.893976 100.517 1.01919C99.4121 2.93237 100.068 5.37873 101.981 6.48329C103.894 7.58786 106.34 6.93237 107.445 5.01919ZM93.3013 61.5166C95.2144 62.6212 95.8699 65.0675 94.7654 66.9807C93.6608 68.8939 91.2144 69.5494 89.3013 68.4448C87.3881 67.3403 86.7326 64.8939 87.8372 62.9807C88.9417 61.0675 91.3881 60.412 93.3013 61.5166ZM104.765 49.6602C105.87 47.747 105.214 45.3007 103.301 44.1961C101.388 43.0915 98.9417 43.747 97.8372 45.6602C96.7326 47.5734 97.3881 50.0197 99.3013 51.1243C101.214 52.2289 103.661 51.5734 104.765 49.6602ZM113.301 26.8756C115.214 27.9802 115.87 30.4265 114.765 32.3397C113.661 34.2529 111.214 34.9084 109.301 33.8038C107.388 32.6992 106.733 30.2529 107.837 28.3397C108.942 26.4265 111.388 25.771 113.301 26.8756ZM124.765 15.0192C125.87 13.106 125.214 10.6597 123.301 9.55509C121.388 8.45052 118.942 9.10602 117.837 11.0192C116.733 12.9324 117.388 15.3787 119.301 16.4833C121.214 17.5879 123.661 16.9324 124.765 15.0192Z" fill="white" fill-opacity="0.15"/>
</svg>
